<?xml version="1.0" standalone="no"?>
<!DOCTYPE svg PUBLIC "-//W3C//DTD SVG 20010904//EN"
 "http://www.w3.org/TR/2001/REC-SVG-20010904/DTD/svg10.dtd">
<svg version="1.0" xmlns="http://www.w3.org/2000/svg"
 width="640.000000pt" height="1280.000000pt" viewBox="0 0 640.000000 1280.000000"
 preserveAspectRatio="xMidYMid meet">
<metadata>
Created by potrace 1.15, written by Peter Selinger 2001-2017
</metadata>
<g transform="translate(0.000000,1280.000000) scale(0.100000,-0.100000)"
fill="#000000" stroke="none">
<path d="M3033 12785 c-93 -17 -162 -40 -248 -83 -255 -127 -432 -345 -507
-623 l-23 -84 -5 -4232 -5 -4232 -85 -56 c-437 -292 -714 -707 -821 -1233 -27
-130 -36 -423 -19 -570 94 -797 686 -1452 1471 -1626 990 -219 1982 385 2238
1365 50 191 56 247 56 489 0 239 -8 301 -61 499 -91 337 -299 673 -560 903
-85 76 -213 171 -281 209 l-43 24 0 518 0 517 325 0 325 0 0 120 0 120 -325 0
-325 0 0 765 0 765 325 0 325 0 0 120 0 120 -325 0 -325 0 0 765 0 765 325 0
325 0 0 120 0 120 -322 2 -323 3 -3 763 -2 762 325 0 325 0 0 125 0 125 -325
0 -325 0 0 913 c0 850 -2 918 -19 1002 -38 186 -127 345 -270 485 -219 213
-524 309 -818 255z m340 -349 c189 -60 340 -209 405 -400 l27 -81 3 -4312 2
-4312 118 -69 c310 -184 502 -381 646 -664 254 -498 227 -1079 -72 -1543 -228
-355 -580 -595 -1005 -687 -150 -32 -446 -32 -600 0 -484 102 -870 399 -1092
841 -210 419 -208 947 5 1372 142 285 353 504 654 680 l126 73 0 4266 c0 2729
4 4289 10 4333 21 140 75 249 178 352 67 67 179 133 262 153 25 6 54 14 65 16
38 9 220 -3 268 -18z"/>
<path d="M2830 5136 l0 -1953 -77 -28 c-436 -154 -766 -531 -864 -985 -33
-153 -33 -402 -1 -549 122 -545 540 -950 1082 -1047 125 -22 335 -22 460 0
418 75 778 343 967 721 54 107 87 200 114 326 33 148 33 397 0 549 -98 454
-428 831 -863 985 l-78 28 0 1953 0 1954 -370 0 -370 0 0 -1954z"/>
</g>
</svg>
